<?xml version="1.0" encoding="UTF-8"?>
<svg xmlns="http://www.w3.org/2000/svg" xmlns:xlink="http://www.w3.org/1999/xlink" width="40px" height="40px" viewBox="0 0 40 40" version="1.1">
<g id="surface1">
<path style=" stroke:none;fill-rule:nonzero;fill:rgb(0%,0%,0%);fill-opacity:1;" d="M 20 0 C 8.972656 0 0 8.972656 0 20 C 0 31.027344 8.972656 40 20 40 C 31.027344 40 40 31.027344 40 20 C 40 8.972656 31.027344 0 20 0 Z M 20 36.902344 C 10.683594 36.902344 3.097656 29.320312 3.097656 20 C 3.097656 10.679688 10.679688 3.097656 20 3.097656 C 29.320312 3.097656 36.902344 10.679688 36.902344 20 C 36.902344 29.320312 29.320312 36.902344 20 36.902344 Z M 20 36.902344 "/>
<path style=" stroke:none;fill-rule:nonzero;fill:rgb(0%,0%,0%);fill-opacity:1;" d="M 28.847656 22.136719 L 21.101562 14.390625 C 20.496094 13.789062 19.519531 13.789062 18.914062 14.390625 L 11.167969 22.136719 C 10.671875 22.71875 10.671875 23.574219 11.167969 24.152344 C 11.726562 24.800781 12.703125 24.878906 13.355469 24.320312 L 20 17.675781 L 26.660156 24.320312 C 27.265625 24.921875 28.242188 24.921875 28.847656 24.320312 C 29.445312 23.71875 29.445312 22.742188 28.847656 22.136719 Z M 28.847656 22.136719 "/>
</g>
</svg>
