<?xml version="1.0" encoding="UTF-8"?>
<svg xmlns="http://www.w3.org/2000/svg" xmlns:xlink="http://www.w3.org/1999/xlink" width="50pt" height="50pt" viewBox="0 0 50 50" version="1.1">
<g id="surface1">
<path style=" stroke:none;fill-rule:nonzero;fill:rgb(37.647059%,49.019608%,54.509804%);fill-opacity:1;" d="M 48.128906 22.0625 L 24.988281 45.207031 L 1.84375 22.0625 C 1.414062 21.648438 0.722656 21.660156 0.308594 22.089844 C -0.0976562 22.511719 -0.0976562 23.179688 0.308594 23.601562 L 24.21875 47.511719 C 24.644531 47.9375 25.332031 47.9375 25.757812 47.511719 L 49.667969 23.601562 C 50.085938 23.167969 50.074219 22.480469 49.640625 22.0625 C 49.21875 21.65625 48.550781 21.65625 48.132812 22.0625 Z M 48.128906 22.0625 "/>
<path style=" stroke:none;fill-rule:nonzero;fill:rgb(37.647059%,49.019608%,54.509804%);fill-opacity:1;" d="M 48.128906 2.5 L 24.988281 25.644531 L 1.84375 2.5 C 1.414062 2.082031 0.722656 2.09375 0.308594 2.527344 C -0.0976562 2.949219 -0.0976562 3.613281 0.308594 4.035156 L 24.21875 27.949219 C 24.644531 28.371094 25.332031 28.371094 25.757812 27.949219 L 49.667969 4.035156 C 50.101562 3.621094 50.113281 2.929688 49.695312 2.5 C 49.277344 2.066406 48.589844 2.054688 48.15625 2.472656 C 48.148438 2.480469 48.140625 2.492188 48.132812 2.5 Z M 48.128906 2.5 "/>
<path style=" stroke:none;fill-rule:nonzero;fill:rgb(0%,0%,0%);fill-opacity:1;" d="M 24.988281 47.832031 C 24.699219 47.832031 24.421875 47.71875 24.21875 47.515625 L 0.304688 23.601562 C -0.113281 23.171875 -0.101562 22.484375 0.332031 22.066406 C 0.753906 21.660156 1.421875 21.660156 1.84375 22.066406 L 24.988281 45.207031 L 48.128906 22.0625 C 48.5625 21.648438 49.25 21.660156 49.664062 22.089844 C 50.074219 22.511719 50.074219 23.179688 49.664062 23.601562 L 25.753906 47.511719 C 25.550781 47.714844 25.273438 47.832031 24.988281 47.832031 Z M 24.988281 47.832031 "/>
<path style=" stroke:none;fill-rule:nonzero;fill:rgb(0%,0%,0%);fill-opacity:1;" d="M 24.988281 28.269531 C 24.699219 28.269531 24.421875 28.15625 24.21875 27.949219 L 0.304688 4.039062 C -0.113281 3.605469 -0.101562 2.917969 0.332031 2.5 C 0.753906 2.09375 1.421875 2.09375 1.84375 2.5 L 24.988281 25.644531 L 48.128906 2.5 C 48.546875 2.066406 49.234375 2.054688 49.667969 2.472656 C 50.097656 2.890625 50.109375 3.578125 49.691406 4.007812 C 49.683594 4.019531 49.675781 4.027344 49.667969 4.035156 L 25.753906 27.949219 C 25.550781 28.152344 25.273438 28.265625 24.988281 28.269531 Z M 24.988281 28.269531 "/>
</g>
</svg>
